PathFileType	3	(X/Y/Z)	C:\Users\koon_\Desktop\																																																																															
DataRate	CameraRate	NumFrames	NumMarkers	Units	OrigDataRate	OrigDataStartFrame	OrigNumFrames																																																																											
100	100	11	27	mm	100	1631	2174																																																																											
Frame#	Time	get:LFHD			get:RFHD			get:LBHD			get:RBHD			get:C7			get:T10			get:CLAV			get:STRN			get:RBAK			get:LSHO			get:LUPA			get:LELB			get:LFRA			get:LWRA			get:LWRB			get:LFIN			get:RSHO			get:RUPA			get:RELB			get:RFRA			get:RWRA			get:RWRB			get:RFIN			get:LASI			get:RASI			get:LPSI			get:RPSI		
		X1	Y1	Z1	X2	Y2	Z2	X3	Y3	Z3	X4	Y4	Z4	X5	Y5	Z5	X6	Y6	Z6	X7	Y7	Z7	X8	Y8	Z8	X9	Y9	Z9	X10	Y10	Z10	X11	Y11	Z11	X12	Y12	Z12	X13	Y13	Z13	X14	Y14	Z14	X15	Y15	Z15	X16	Y16	Z16	X17	Y17	Z17	X18	Y18	Z18	X19	Y19	Z19	X20	Y20	Z20	X21	Y21	Z21	X22	Y22	Z22	X23	Y23	Z23	X24	Y24	Z24	X25	Y25	Z25	X26	Y26	Z26	X27	Y27	Z27
1631	16.3	108.37833	1544.2587	-18.594908	-37.756245	1540.9539	-27.068996	112.57983	1521.5538	-155.24812	-37.032646	1512.8628	-156.97473	30.68179	1328.342	-199.349	44.092476	1113.4502	-240.87453	47.030857	1242.9874	-5.4368577	49.522743	1086.7421	31.211927	-56.842976	1255.4611	-222.83008	204.49699	1325.3634	-138.52344	240.42896	1105.4785	-92.332832	247.0936	992.6236	-151.323	231.42694	940.33374	-67.559921	196.22308	769.5769	-36.291714	264.16296	771.41528	-66.269684	256.3765	698.18073	-35.696365	-104.33405	1331.9021	-98.491806	-166.87662	1203.7814	-76.765762	-184.59172	990.42609	-112.26054	-119.19207	863.36121	-30.914324	-99.81517	769.19684	-19.503567	-172.37209	775.435	-27.125782	-129.40749	700.88989	9.9666796	183.60776	889.63702	-54.381306	-111.09336	900.37366	-56.639778	91.423233	922.57965	-242.58554	3.8129084	918.79755	-246.2674
1632	16.31	108.32196	1544.0405	-19.716139	-37.810936	1541.1912	-28.24674	112.44811	1521.1788	-156.3454	-37.192867	1512.8766	-157.89339	30.59708	1328.433	-200.2734	43.940235	1113.6533	-242.61491	46.286194	1242.4319	-7.2661028	48.54525	1086.3889	29.892176	-57.243973	1255.417	-224.48647	203.61748	1326.1373	-139.34595	240.68047	1107.8411	-93.154266	253.02965	993.50018	-150.0204	234.18597	941.52667	-67.264519	200.01219	771.06512	-36.061707	270.43521	774.40887	-62.657124	258.57742	699.94293	-30.801498	-104.37363	1332.0313	-100.39365	-167.9276	1205.0713	-78.01162	-189.61537	990.51758	-108.68892	-121.92987	864.13391	-29.725517	-103.50979	768.82672	-18.725513	-176.30241	776.91217	-24.120724	-133.48299	702.70923	13.901989	182.79616	889.98114	-54.657333	-112.7127	900.21411	-58.272953	91.32135	922.65967	-242.82443	3.4384155	918.47455	-247.13203
1633	16.32	108.28985	1543.6974	-20.891071	-37.786095	1541.4049	-29.294954	112.35256	1520.6991	-157.5293	-37.347702	1512.9685	-159.03038	30.55292	1328.408	-201.6101	44.028519	1113.6619	-244.01051	45.404861	1241.9835	-9.3224573	47.479015	1086.0831	28.337484	-57.690922	1255.4236	-226.13795	202.56996	1327.0907	-140.15277	242.71135	1109.8599	-94.408051	259.59842	994.43878	-148.80174	238.77551	942.565	-67.412094	203.47485	772.41248	-35.450821	274.8855	775.81244	-59.039623	260.44919	701.83228	-25.633612	-104.45833	1332.1216	-101.93288	-169.18881	1206.4387	-79.116264	-194.56889	991.10742	-107.68349	-125.64861	864.6015	-28.265125	-107.64404	769.07465	-16.176359	-180.58452	777.7373	-21.725161	-138.01158	704.37665	17.342766	182.04298	890.18719	-54.902855	-114.05149	899.76141	-59.655926	91.196327	923.02777	-242.51617	3.2406113	918.29102	-247.75955
1634	16.33	108.29639	1543.3021	-22.037868	-37.847462	1541.629	-30.438074	112.21149	1520.1342	-158.62598	-37.504204	1513.1101	-160.16656	30.40097	1328.434	-203.3696	44.173866	1113.6848	-245.45235	44.457462	1241.7205	-10.964608	46.443008	1085.9323	26.454956	-58.23951	1255.3348	-227.71854	201.5883	1327.9838	-140.94	246.18237	1111.4313	-95.861046	266.03543	995.62292	-147.55997	244.87822	943.99036	-66.533882	206.96149	774.54315	-34.423874	278.66806	776.20526	-55.93858	263.37778	704.68054	-21.232803	-104.83791	1332.1324	-103.51591	-170.55984	1207.5883	-80.206749	-199.02945	991.68823	-106.90607	-129.82001	864.94312	-26.53083	-112.3791	768.98114	-14.311281	-185.24318	778.6344	-19.544884	-143.53571	705.5578	20.66733	181.17497	890.18164	-55.237118	-115.33006	899.27588	-60.916039	91.147224	923.38873	-242.39406	3.0819361	918.21918	-248.24263
1635	16.34	108.22511	1542.8016	-23.143446	-37.905411	1541.8204	-31.559788	112.04452	1519.5903	-159.74055	-37.750469	1513.1721	-161.06241	30.35501	1328.277	-205.4426	44.434139	1113.4222	-246.37807	43.47377	1241.5249	-12.790804	45.333782	1085.7927	24.472633	-58.813786	1255.1823	-229.14604	200.77525	1328.66	-141.77779	250.29463	1112.9598	-96.801071	272.09369	997.43768	-146.34955	251.09726	945.75952	-65.291779	211.02733	776.94617	-32.870419	283.14325	777.35547	-53.207191	266.7261	707.65588	-17.403189	-105.43632	1332.072	-105.1196	-171.89337	1208.3688	-81.185745	-202.92444	992.3692	-106.03621	-134.17329	865.54224	-24.70121	-117.49817	768.69293	-12.428628	-190.3468	779.79407	-17.445059	-149.53664	706.64075	23.59931	180.19405	889.99963	-55.454926	-116.43232	898.97577	-62.089203	91.194687	923.45746	-242.71561	3.045814	918.25916	-248.86122
1636	16.35	108.18581	1542.3063	-24.16925	-37.975159	1541.9802	-32.53162	111.83631	1519.149	-160.79829	-37.982224	1513.3652	-161.99614	29.99924	1328.144	-207.7343	44.608318	1113.1707	-247.2101	42.437477	1241.4875	-14.50665	44.398834	1085.6875	22.246799	-59.294788	1254.7883	-230.43864	199.96362	1329.2395	-142.66002	254.51309	1114.8517	-96.7743	277.95303	999.69995	-144.821	256.46298	947.72601	-64.241028	215.68825	778.64294	-31.950302	288.58936	779.31305	-50.681293	270.64865	710.16003	-14.156812	-106.09789	1331.9838	-106.84666	-173.08752	1208.9822	-82.037514	-206.55742	993.06763	-106.04575	-139.02058	865.93469	-22.579931	-122.96172	768.86865	-9.9003305	-195.81712	780.98889	-15.477228	-155.89835	707.58386	26.179588	179.44453	889.76501	-55.793583	-117.39607	898.88751	-63.241558	91.214943	923.39417	-243.42094	2.9965858	918.20563	-249.43419
1637	16.36	108.10051	1541.8188	-25.200783	-38.045444	1542.0835	-33.476593	111.6702	1518.8865	-161.8822	-38.202991	1513.6874	-163.06181	29.79812	1328.031	-209.8615	44.783562	1112.9569	-248.18883	41.598961	1241.5376	-16.058266	43.594772	1085.6616	20.248503	-59.724781	1254.4689	-231.86852	199.34595	1329.6783	-143.54881	258.42841	1116.8271	-95.864441	283.16891	1001.8766	-143.72781	260.83719	949.90344	-63.171795	221.06107	780.8103	-30.349487	294.27609	781.77295	-48.254681	275.61307	712.599	-11.192164	-106.68794	1331.9086	-108.70196	-174.02919	1209.2666	-82.833862	-209.85017	993.42212	-105.79529	-143.78856	866.43024	-20.832905	-128.82899	769.13361	-7.1398139	-201.46669	782.16394	-13.70704	-163.11415	708.52148	28.854383	178.86717	889.5697	-56.241882	-118.22053	898.97974	-64.459335	91.102417	923.27765	-244.35316	2.8975933	918.13214	-250.08171
1638	16.37	107.89459	1541.3429	-26.242014	-38.202751	1542.1674	-34.541855	111.45847	1518.7844	-162.94025	-38.411568	1514.1995	-164.42439	29.33574	1327.874	-211.8255	44.851093	1112.7352	-249.3051	40.798302	1241.6753	-17.646532	43.017342	1085.7219	18.520317	-59.987915	1254.0646	-233.29108	198.67159	1330.0592	-144.60896	261.37448	1118.4054	-94.377876	287.44666	1003.6123	-143.04147	264.77505	952.07343	-62.369827	226.68671	782.97357	-28.668587	299.98062	784.22705	-45.900372	281.68951	715.0835	-8.4074554	-107.2354	1331.7742	-110.2023	-174.55731	1209.3763	-83.553688	-212.98123	993.74518	-105.99423	-148.52733	867.06738	-19.10253	-134.95532	769.47754	-4.3089447	-207.41643	783.58966	-11.951498	-170.80734	709.61249	31.396589	178.42799	889.52948	-56.722019	-118.73167	899.25018	-65.386597	90.793015	923.02606	-245.30316	2.6908758	918.1803	-251.05086
1639	16.38	107.72772	1540.9666	-27.073507	-38.396484	1542.1541	-35.475483	111.29364	1518.9469	-163.85013	-38.625061	1514.7352	-165.45433	28.96089	1327.761	-213.614	45.065887	1112.5952	-250.595	40.111183	1241.8428	-18.98292	42.598522	1085.8964	17.036369	-60.20631	1253.6587	-234.81648	198.08307	1330.4126	-145.59952	262.74362	1119.7771	-92.5625	291.15955	1005.0381	-142.38837	268.61414	953.73804	-61.766636	232.59451	785.08466	-26.878868	305.90247	786.83276	-43.71936	288.41766	717.63281	-5.842639	-107.68092	1331.6736	-112.18642	-174.77615	1209.3989	-84.138039	-215.70549	993.99945	-105.11964	-153.65735	867.72028	-17.748835	-141.57025	770.07623	-2.0486581	-213.70996	784.9668	-10.427101	-178.58052	710.84839	33.871864	178.22079	889.64349	-57.2519	-118.91011	899.57349	-65.946312	90.303658	922.65332	-246.19498	2.2879376	918.12372	-251.95691
1640	16.39	107.44903	1540.6056	-27.883423	-38.644119	1542.0984	-36.399841	111.10594	1519.2467	-164.83176	-38.87394	1515.2	-166.26808	28.56637	1327.576	-215.1026	45.223133	1112.3947	-251.81874	39.463478	1242.0211	-20.386623	42.205002	1086.1764	16.033527	-60.308479	1253.1604	-236.09175	197.55653	1330.7573	-146.68346	262.91055	1121.3169	-91.181778	294.66077	1006.675	-141.94821	272.2641	955.25281	-61.176689	238.77846	787.06885	-25.148979	312.12683	789.46527	-41.80051	295.34561	720.11584	-3.5616641	-107.97636	1331.5354	-113.78029	-174.89485	1209.4534	-84.659241	-218.23524	994.59174	-104.96608	-159.13712	868.32501	-16.035606	-148.73949	770.88403	0.29995972	-220.20277	786.29657	-9.1448421	-186.75902	712.29089	36.347721	177.84105	889.72516	-58.115715	-118.96477	899.90509	-66.294434	89.72805	922.17175	-247.108	1.7558565	917.90289	-252.6465
1641	16.4	107.12302	1540.2798	-28.717146	-38.974941	1541.9785	-37.440239	110.89729	1519.6805	-165.77846	-38.962742	1516.1124	-167.93825	28.14006	1327.326	-216.4152	45.158783	1112.0944	-252.72807	38.980511	1242.1958	-21.632597	41.918186	1086.5079	15.318596	-60.539013	1252.7449	-237.28427	197.14731	1331.0891	-147.64204	262.70367	1122.9618	-90.384644	298.11353	1008.5039	-141.64145	275.87674	956.90466	-60.854046	244.89427	788.88043	-23.402842	318.28354	792.05219	-39.990784	302.49707	722.65411	-1.3742903	-108.19411	1331.4194	-115.51485	-174.95929	1209.507	-85.199844	-220.44876	995.23767	-104.90373	-164.70038	869.03491	-14.601374	-155.5397	771.44788	2.5944209	-226.89255	787.67841	-8.090415	-195.5829	713.8512	39.002583	177.82884	890.00623	-58.568493	-118.87525	899.88495	-67.081177	89.040062	921.56537	-247.89151	1.0678275	917.59534	-253.31982
